HIERARCHY
ROOT Hips
{
    OFFSET 0.000000 0.000000 0.000000
    CHANNELS 6 Xposition Yposition Zposition Zrotation Xrotation Yrotation
    JOINT Spine
    {
        OFFSET -0.000000 14.517291 0.000000
        CHANNELS 3 Zrotation Xrotation Yrotation
        JOINT Spine1
        {
            OFFSET -0.000000 37.558300 0.000000
            CHANNELS 3 Zrotation Xrotation Yrotation
            JOINT Neck
            {
                OFFSET -0.000000 37.404057 3.400369
                CHANNELS 3 Zrotation Xrotation Yrotation
                JOINT Head
                {
                    OFFSET -0.000000 24.785618 -3.540803
                    CHANNELS 3 Zrotation Xrotation Yrotation
                    End Site
                    {
                        OFFSET -0.000000 35.408028 0.000000
                    }
                }
            }
            JOINT LeftShoulder
            {
                OFFSET 6.992933 33.973492 -0.192664
                CHANNELS 3 Zrotation Xrotation Yrotation
                JOINT LeftArm
                {
                    OFFSET 21.527611 0.000000 0.000000
                    CHANNELS 3 Zrotation Xrotation Yrotation
                    JOINT LeftForeArm
                    {
                        OFFSET 56.353916 0.000000 0.000000
                        CHANNELS 3 Zrotation Xrotation Yrotation
                        JOINT LeftHand
                        {
                            OFFSET 47.774071 0.000000 0.000000
                            CHANNELS 3 Zrotation Xrotation Yrotation
                            End Site
                            {
                                OFFSET 26.556021 0.000000 0.000000
                            }
                        }
                    }
                }
            }
            JOINT RightShoulder
            {
                OFFSET -7.065357 33.973492 -0.192664
                CHANNELS 3 Zrotation Xrotation Yrotation
                JOINT RightArm
                {
                    OFFSET -21.527611 0.000000 0.000000
                    CHANNELS 3 Zrotation Xrotation Yrotation
                    JOINT RightForeArm
                    {
                        OFFSET -56.353916 0.000000 0.000000
                        CHANNELS 3 Zrotation Xrotation Yrotation
                        JOINT RightHand
                        {
                            OFFSET -47.774071 0.000000 0.000000
                            CHANNELS 3 Zrotation Xrotation Yrotation
                            End Site
                            {
                                OFFSET -26.556021 0.000000 0.000000
                            }
                        }
                    }
                }
            }
        }
    }
    JOINT LeftUpLeg
    {
        OFFSET 17.704014 0.000000 0.000000
        CHANNELS 3 Zrotation Xrotation Yrotation
        JOINT LeftLeg
        {
            OFFSET -0.000000 -81.181816 0.000000
            CHANNELS 3 Zrotation Xrotation Yrotation
            JOINT LeftFoot
            {
                OFFSET -0.000000 -62.821102 0.000000
                CHANNELS 3 Zrotation Xrotation Yrotation
                JOINT LeftToeBase
                {
                    OFFSET -0.000000 -11.507608 26.556021
                    CHANNELS 3 Zrotation Xrotation Yrotation
                    End Site
                    {
                        OFFSET -0.000000 0.000000 7.081605
                    }
                }
            }
        }
    }
    JOINT RightUpLeg
    {
        OFFSET -17.704014 0.000000 0.000000
        CHANNELS 3 Zrotation Xrotation Yrotation
        JOINT RightLeg
        {
            OFFSET -0.000000 -81.181816 0.000000
            CHANNELS 3 Zrotation Xrotation Yrotation
            JOINT RightFoot
            {
                OFFSET -0.000000 -62.821102 0.000000
                CHANNELS 3 Zrotation Xrotation Yrotation
                JOINT RightToeBase
                {
                    OFFSET -0.000000 -11.507608 26.556021
                    CHANNELS 3 Zrotation Xrotation Yrotation
                    End Site
                    {
                        OFFSET -0.000000 0.000000 7.081605
                    }
                }
            }
        }
    }
}
MOTION
Frames:    12
Frame Time:    0.008333
10.820659    154.319580    -119.784996    -1.548217    -7.672327    45.643494    0.508850    -2.455208    -0.671682    -9.603857    5.219114    0.210115    -2.065352    -1.255413    -21.114941    20.868521    7.182297    -20.137339    10.516667    6.769075    -31.953629    -20.466669    38.532066    -50.760220    -17.726812    2.564904    -12.052967    -2.107796    0.963948    -15.389974    -17.006662    -9.704553    0.133203    32.076340    -22.753063    83.713715    0.860385    -8.066407    16.295650    -5.223114    -9.480699    28.096201    22.020813    -5.781441    -0.404252    -14.808907    40.035828    -19.052559    4.675844    -28.796425    43.067776    0.000000    0.000000    0.000000    -15.806235    -16.606348    -15.306397    9.074901    23.276545    -16.394934    5.303102    10.302001    -14.098753    0.000000    0.000000    0.000000    
10.825405    154.315247    -119.789520    -1.557223    -7.674260    45.640709    0.511689    -2.459539    -0.668426    -9.598765    5.215370    0.210487    -2.061883    -1.248182    -21.114477    20.833103    7.150800    -20.134296    10.504525    6.761423    -31.945681    -20.420616    38.500721    -50.801563    -17.689486    2.537780    -12.037576    -2.122576    0.945591    -15.412327    -17.011257    -9.703455    0.125760    32.081421    -22.749365    83.726669    0.859711    -8.085358    16.291819    -5.211119    -9.496976    28.107260    22.028692    -5.791228    -0.416462    -14.831876    40.045452    -19.012449    4.655481    -28.815060    43.050201    0.000000    0.000000    0.000000    -15.805907    -16.615000    -15.291057    9.088402    23.280542    -16.401352    5.311628    10.308052    -14.107418    0.000000    0.000000    0.000000    
10.829009    154.309082    -119.798866    -1.563717    -7.669944    45.636681    0.514763    -2.458361    -0.667620    -9.604827    5.197594    0.209714    -2.057359    -1.229899    -21.102827    20.810371    7.108250    -20.116854    10.488842    6.754639    -31.930265    -20.372129    38.479862    -50.850098    -17.637432    2.507999    -12.007912    -2.175338    0.933663    -15.433510    -17.010654    -9.706492    0.138325    32.095287    -22.749100    83.718086    0.866902    -8.086280    16.302942    -5.221320    -9.502003    28.116198    22.030418    -5.806491    -0.427539    -14.854725    40.062099    -18.999088    4.675940    -28.814301    43.062988    0.000000    0.000000    0.000000    -15.810614    -16.627897    -15.285720    9.092299    23.283033    -16.426888    5.312521    10.310759    -14.089002    0.000000    0.000000    0.000000    
10.835989    154.305084    -119.803879    -1.570669    -7.671528    45.633633    0.523090    -2.470084    -0.665623    -9.609646    5.208037    0.211211    -2.054471    -1.219439    -21.108393    20.792850    7.073483    -20.118267    10.472978    6.740589    -31.920752    -20.324060    38.435230    -50.887470    -17.616516    2.462242    -11.997198    -2.203470    0.895725    -15.443744    -17.012579    -9.703706    0.143418    32.091595    -22.750462    83.717346    0.846649    -8.102390    16.306492    -5.174428    -9.503710    28.118965    22.034866    -5.812121    -0.442930    -14.865960    40.066956    -18.996561    4.697592    -28.819408    43.075520    0.000000    0.000000    0.000000    -15.810002    -16.634506    -15.291757    9.095271    23.288475    -16.433294    5.322378    10.311572    -14.088879    0.000000    0.000000    0.000000    
10.841823    154.302460    -119.807968    -1.579834    -7.672194    45.625412    0.531124    -2.467616    -0.660972    -9.617760    5.191153    0.211604    -2.032935    -1.198986    -21.104437    20.761597    7.026121    -20.111546    10.463616    6.731507    -31.910742    -20.290829    38.394287    -50.928745    -17.595940    2.404278    -11.973648    -2.157196    0.837509    -15.448341    -16.999573    -9.690187    0.135211    32.100407    -22.747583    83.736862    0.840819    -8.093481    16.314066    -5.165343    -9.492961    28.142773    22.043243    -5.817336    -0.443945    -14.883883    40.074268    -18.967966    4.673958    -28.842623    43.060413    0.000000    0.000000    0.000000    -15.807431    -16.641895    -15.283927    9.102763    23.286541    -16.439926    5.318415    10.316205    -14.086146    0.000000    0.000000    0.000000    
10.851168    154.300018    -119.815079    -1.572891    -7.675115    45.621334    0.529153    -2.456569    -0.660175    -9.622747    5.180578    0.211472    -2.047916    -1.163221    -21.110073    20.788740    6.986249    -20.106340    10.463999    6.737041    -31.899334    -20.203114    38.375347    -51.007412    -17.552410    2.329663    -11.970708    -2.105669    0.761046    -15.447600    -16.994595    -9.679549    0.154075    32.088169    -22.753181    83.714958    0.823892    -8.096947    16.341377    -5.137757    -9.487027    28.134991    22.037682    -5.806361    -0.459144    -14.898890    40.068375    -18.956409    4.679312    -28.846586    43.068817    0.000000    0.000000    0.000000    -15.813033    -16.638519    -15.288323    9.097143    23.297039    -16.427973    5.302975    10.311344    -14.068739    0.000000    0.000000    0.000000    
10.859165    154.300766    -119.819168    -1.573696    -7.676148    45.612782    0.523005    -2.451983    -0.653875    -9.613735    5.171292    0.212363    -2.060886    -1.147356    -21.114969    20.803156    6.965203    -20.104753    10.447385    6.723085    -31.895912    -20.168381    38.333778    -51.046188    -17.554768    2.275419    -11.945873    -2.052770    0.703334    -15.456812    -16.994413    -9.669566    0.157687    32.106800    -22.765949    83.717888    0.842978    -8.082341    16.367815    -5.196652    -9.490485    28.145927    22.035881    -5.800598    -0.441022    -14.890384    40.071636    -18.951029    4.684099    -28.846109    43.052437    0.000000    0.000000    0.000000    -15.811968    -16.636768    -15.294765    9.089055    23.291035    -16.405251    5.307154    10.322496    -14.077549    0.000000    0.000000    0.000000    
10.869545    154.299744    -119.822487    -1.568725    -7.678238    45.609409    0.518014    -2.441842    -0.653145    -9.617579    5.157275    0.211615    -2.058004    -1.111932    -21.116093    20.821865    6.921235    -20.097504    10.449644    6.722746    -31.895819    -20.122936    38.287655    -51.099972    -17.556417    2.275435    -11.907413    -2.003263    0.702719    -15.474995    -16.982224    -9.657295    0.164371    32.103783    -22.765520    83.709938    0.828425    -8.061938    16.388367    -5.145770    -9.455947    28.152002    22.030441    -5.794565    -0.432726    -14.881991    40.080948    -18.971998    4.691271    -28.847649    43.060291    0.000000    0.000000    0.000000    -15.816876    -16.627363    -15.305629    9.086184    23.285192    -16.399067    5.304551    10.320612    -14.069231    0.000000    0.000000    0.000000    
10.878272    154.301208    -119.823769    -1.566214    -7.683270    45.603321    0.506688    -2.436795    -0.650721    -9.608636    5.155000    0.212027    -2.037233    -1.094200    -21.118448    20.812653    6.890854    -20.098770    10.455586    6.712816    -31.896385    -20.089581    38.232742    -51.152302    -17.566092    2.248175    -11.874216    -2.003824    0.679991    -15.490068    -16.967829    -9.650153    0.170515    32.111832    -22.779121    83.711342    0.846621    -8.039282    16.408245    -5.158882    -9.440052    28.166727    22.027319    -5.784724    -0.414783    -14.868824    40.086243    -18.984608    4.683518    -28.859791    43.060818    0.000000    0.000000    0.000000    -15.812631    -16.621927    -15.318722    9.074474    23.284065    -16.409863    5.301559    10.331148    -14.041435    0.000000    0.000000    0.000000    
10.887766    154.298615    -119.828239    -1.567412    -7.678735    45.597130    0.501778    -2.445804    -0.652216    -9.610197    5.159814    0.211892    -2.035677    -1.091084    -21.113604    20.824041    6.885658    -20.092108    10.456638    6.713993    -31.884668    -20.044744    38.166420    -51.207966    -17.580084    2.171887    -11.872179    -2.054383    0.609369    -15.493407    -16.966702    -9.645739    0.179306    32.114441    -22.779413    83.705208    0.841516    -8.026174    16.430740    -5.163836    -9.427541    28.163870    22.020844    -5.786930    -0.400475    -14.862973    40.095695    -18.995834    4.726057    -28.845379    43.073978    0.000000    0.000000    0.000000    -15.818483    -16.621675    -15.333765    9.073217    23.277243    -16.381598    5.309289    10.328417    -14.065873    0.000000    0.000000    0.000000    
10.895586    154.298920    -119.828781    -1.572351    -7.684368    45.593925    0.495646    -2.442143    -0.652449    -9.586417    5.147132    0.209595    -2.042480    -1.073948    -21.115791    20.830065    6.879315    -20.091999    10.434144    6.719813    -31.886509    -20.021448    38.085922    -51.242729    -17.622149    2.092975    -11.851487    -2.043169    0.527807    -15.492109    -16.975916    -9.629475    0.184709    32.090832    -22.777035    83.691833    0.840175    -8.033189    16.451916    -5.166551    -9.435624    28.174240    22.026739    -5.783099    -0.418349    -14.878868    40.091763    -18.986614    4.733412    -28.852377    43.083485    0.000000    0.000000    0.000000    -15.808458    -16.613808    -15.346171    9.061846    23.263788    -16.385258    5.299030    10.334204    -14.041595    0.000000    0.000000    0.000000    
10.904922    154.299713    -119.830795    -1.579468    -7.686630    45.592365    0.501740    -2.449212    -0.657277    -9.590682    5.150164    0.208603    -2.027467    -1.090425    -21.109694    20.821783    6.902887    -20.092670    10.432470    6.729836    -31.870207    -19.993036    38.000893    -51.307457    -17.639694    2.010904    -11.811683    -2.033688    0.448806    -15.504436    -16.971743    -9.627261    0.198246    32.091064    -22.782171    83.682236    0.848134    -8.022475    16.468721    -5.161541    -9.423773    28.148195    22.029690    -5.786388    -0.412013    -14.877499    40.100651    -18.991207    4.720834    -28.863291    43.090454    0.000000    0.000000    0.000000    -15.803195    -16.609102    -15.342164    9.062684    23.248669    -16.373461    5.295723    10.342597    -14.048588    0.000000    0.000000    0.000000    
